<?xml version="1.0" encoding="utf-8"?>
<!-- Generator: Adobe Illustrator 19.2.0, SVG Export Plug-In . SVG Version: 6.00 Build 0)  -->
<!DOCTYPE svg PUBLIC "-//W3C//DTD SVG 1.1//EN" "http://www.w3.org/Graphics/SVG/1.1/DTD/svg11.dtd">
<svg version="1.1" id="Layer_1" xmlns="http://www.w3.org/2000/svg" xmlns:xlink="http://www.w3.org/1999/xlink" x="0px" y="0px"
	 viewBox="0 0 200 200" style="enable-background:new 0 0 200 200;" xml:space="preserve">
<style type="text/css">
	.st0{fill-rule:evenodd;clip-rule:evenodd;fill:#516078;}
	.st1{fill:none;}
	.st2{fill:#D4D4D4;}
	.st3{fill:#EFEFEF;}
	.st4{fill:#626262;}
	.st5{fill:#7A7A7A;}
	.st6{fill:#E64545;}
	.st7{fill-rule:evenodd;clip-rule:evenodd;fill:#565454;}
	.st8{opacity:0.27;fill-rule:evenodd;clip-rule:evenodd;fill:#F2F2F2;}
	.st9{fill-rule:evenodd;clip-rule:evenodd;fill:#E64545;}
	.st10{fill-rule:evenodd;clip-rule:evenodd;fill:#FFD02C;}
	.st11{fill-rule:evenodd;clip-rule:evenodd;fill:#AEE42D;}
	.st12{opacity:0.38;fill:#565454;}
	.st13{fill:#48C4E5;}
	.st14{fill:#FFD02C;}
	.st15{fill-rule:evenodd;clip-rule:evenodd;fill:#929292;}
	.st16{fill-rule:evenodd;clip-rule:evenodd;fill:#FFFFFF;}
	.st17{fill-rule:evenodd;clip-rule:evenodd;fill:#D6D6D6;}
	.st18{fill-rule:evenodd;clip-rule:evenodd;fill:#BBBBBB;}
	.st19{fill-rule:evenodd;clip-rule:evenodd;fill:#456FD8;}
	.st20{fill-rule:evenodd;clip-rule:evenodd;fill:#567FE5;}
	.st21{fill-rule:evenodd;clip-rule:evenodd;fill:#3258B6;}
	.st22{fill-rule:evenodd;clip-rule:evenodd;fill:#FF72B1;}
	.st23{fill-rule:evenodd;clip-rule:evenodd;fill:#C6C6C6;}
	.st24{fill-rule:evenodd;clip-rule:evenodd;fill:#FFC833;}
	.st25{fill-rule:evenodd;clip-rule:evenodd;fill:#FFD464;}
	.st26{fill:#FFD464;}
	.st27{fill:#F36966;}
	.st28{fill:#1253A3;}
	.st29{fill:#F4F4F2;stroke:#000000;stroke-miterlimit:10;}
	.st30{fill:#303030;}
	.st31{fill:#F4F4F2;}
	.st32{fill-rule:evenodd;clip-rule:evenodd;fill:#44B2B6;}
	.st33{fill-rule:evenodd;clip-rule:evenodd;fill:#F1CDB0;}
	.st34{fill-rule:evenodd;clip-rule:evenodd;fill:#AB6125;}
</style>
<circle class="st25" cx="100" cy="100" r="100"/>
<path class="st25" d="M0,100.2c-0.1-26.8,10.6-53.6,31.7-73.3c40.4-37.7,103.6-35.5,141.3,4.8c18.8,20.2,27.7,46.1,26.9,71.7"/>
<g>
	<g id="body_20_">
		<g>
			<path class="st32" d="M100,95.3c-34.1,0-62.5,11.2-62.5,53c0,6.3,5.1,11.4,11.4,11.4h102.3c6.3,0,11.4-5.1,11.4-11.4
				C162.5,106.5,134.1,95.3,100,95.3z"/>
		</g>
	</g>
	<g id="Rectangle_6">
		<g>
			<polygon class="st16" points="72.6,99.1 89.6,127.5 101,110.4 			"/>
		</g>
	</g>
	<g id="Rectangle_6_copy">
		<g>
			<polygon class="st16" points="99.1,110.4 110.5,127.5 127.5,99.1 			"/>
		</g>
	</g>
	<g id="head">
		<g>
			<circle class="st33" cx="100" cy="76.3" r="34.1"/>
		</g>
	</g>
	<g id="hairs">
		<g>
			<path class="st34" d="M135.3,69.1c-0.2-1.2-0.5-2.3-0.9-3.4C129.8,51,116.1,40.3,100,40.3c-1.1,0-2.1,0.1-3.2,0.2
				c-0.8,0.1-1.6,0.2-2.4,0.3c-0.1,0-0.2,0-0.3,0.1c-1.8,0.3-3.6,0.8-5.4,1.4h-0.2c-13.7,4.6-23.6,17.1-24.4,32.1
				c3.5-0.8,7.1-2.3,10.7-4.3c6-3.5,10.6-8.1,13.2-12.7h1.2c5.9,12.1,21.6,20.8,40.2,20.8c2.2,0,4.4-0.2,6.6-0.4
				c0-0.5,0.1-1,0.1-1.5C136,73.8,135.7,71.4,135.3,69.1z"/>
		</g>
	</g>
</g>
</svg>
