<?xml version="1.0" encoding="utf-8"?>
<!-- Generator: Adobe Illustrator 19.2.0, SVG Export Plug-In . SVG Version: 6.00 Build 0)  -->
<!DOCTYPE svg PUBLIC "-//W3C//DTD SVG 1.1//EN" "http://www.w3.org/Graphics/SVG/1.1/DTD/svg11.dtd">
<svg version="1.1" id="Layer_1" xmlns="http://www.w3.org/2000/svg" xmlns:xlink="http://www.w3.org/1999/xlink" x="0px" y="0px"
	 viewBox="0 0 200 200" style="enable-background:new 0 0 200 200;" xml:space="preserve">
<style type="text/css">
	.st0{fill-rule:evenodd;clip-rule:evenodd;fill:#516078;}
	.st1{fill:none;}
	.st2{fill:#D4D4D4;}
	.st3{fill:#EFEFEF;}
	.st4{fill:#626262;}
	.st5{fill:#7A7A7A;}
	.st6{fill:#E64545;}
	.st7{fill-rule:evenodd;clip-rule:evenodd;fill:#565454;}
	.st8{opacity:0.27;fill-rule:evenodd;clip-rule:evenodd;fill:#F2F2F2;}
	.st9{fill-rule:evenodd;clip-rule:evenodd;fill:#E64545;}
	.st10{fill-rule:evenodd;clip-rule:evenodd;fill:#FFD02C;}
	.st11{fill-rule:evenodd;clip-rule:evenodd;fill:#AEE42D;}
	.st12{opacity:0.38;fill:#565454;}
	.st13{fill:#48C4E5;}
	.st14{fill:#FFD02C;}
	.st15{fill-rule:evenodd;clip-rule:evenodd;fill:#929292;}
	.st16{fill-rule:evenodd;clip-rule:evenodd;fill:#FFFFFF;}
	.st17{fill-rule:evenodd;clip-rule:evenodd;fill:#D6D6D6;}
	.st18{fill-rule:evenodd;clip-rule:evenodd;fill:#BBBBBB;}
	.st19{fill-rule:evenodd;clip-rule:evenodd;fill:#456FD8;}
	.st20{fill-rule:evenodd;clip-rule:evenodd;fill:#567FE5;}
	.st21{fill-rule:evenodd;clip-rule:evenodd;fill:#3258B6;}
	.st22{fill-rule:evenodd;clip-rule:evenodd;fill:#FF72B1;}
	.st23{fill-rule:evenodd;clip-rule:evenodd;fill:#C6C6C6;}
	.st24{fill-rule:evenodd;clip-rule:evenodd;fill:#FFC833;}
	.st25{fill-rule:evenodd;clip-rule:evenodd;fill:#FFD464;}
	.st26{fill:#FFD464;}
	.st27{fill:#F36966;}
	.st28{fill:#1253A3;}
	.st29{fill:#F4F4F2;stroke:#000000;stroke-miterlimit:10;}
	.st30{fill:#303030;}
	.st31{fill:#F4F4F2;}
	.st32{fill-rule:evenodd;clip-rule:evenodd;fill:#44B2B6;}
	.st33{fill-rule:evenodd;clip-rule:evenodd;fill:#F1CDB0;}
	.st34{fill-rule:evenodd;clip-rule:evenodd;fill:#AB6125;}
</style>
<circle class="st25" cx="100" cy="100" r="100"/>
<path class="st25" d="M0,100.2c-0.1-26.8,10.6-53.6,31.7-73.3c40.4-37.7,103.6-35.5,141.3,4.8c18.8,20.2,27.7,46.1,26.9,71.7"/>
<g>
	<g>
		<g id="back_paper_body_3_">
			<g>
				<rect x="63" y="75.1" class="st15" width="59.4" height="76.1"/>
			</g>
		</g>
		<g id="paper_body_3_">
			<g>
				<polygon class="st16" points="99.9,69.2 57.1,69.2 57.1,145.3 116.5,145.3 116.5,85.8 				"/>
			</g>
		</g>
		<g id="corner_3_">
			<g>
				<polygon class="st17" points="99.9,69.2 99.9,85.8 116.5,85.8 				"/>
			</g>
		</g>
		<g id="text_lines_2_">
			<g>
				<path class="st18" d="M69.6,93H104c0.3,0,0.6-0.3,0.6-0.6c0-0.3-0.3-0.6-0.6-0.6H69.6c-0.3,0-0.6,0.3-0.6,0.6
					C69,92.7,69.2,93,69.6,93z M104,103.7H69.6c-0.3,0-0.6,0.3-0.6,0.6c0,0.3,0.3,0.6,0.6,0.6H104c0.3,0,0.6-0.3,0.6-0.6
					C104.6,103.9,104.4,103.7,104,103.7z M104,115.6H69.6c-0.3,0-0.6,0.3-0.6,0.6s0.3,0.6,0.6,0.6H104c0.3,0,0.6-0.3,0.6-0.6
					S104.4,115.6,104,115.6z M104,127.4H69.6c-0.3,0-0.6,0.3-0.6,0.6c0,0.3,0.3,0.6,0.6,0.6H104c0.3,0,0.6-0.3,0.6-0.6
					C104.6,127.7,104.4,127.4,104,127.4z"/>
			</g>
		</g>
	</g>
	<g>
		<g id="body_9_">
			<g>
				
					<rect x="102" y="66.8" transform="matrix(0.7069 -0.7073 0.7073 0.7069 -13.9368 110.6176)" class="st19" width="49" height="10.7"/>
			</g>
		</g>
		<g id="body_7_">
			<g>
				
					<rect x="109" y="73.1" transform="matrix(0.7069 -0.7073 0.7073 0.7069 -16.8566 117.6635)" class="st20" width="49" height="12.1"/>
			</g>
		</g>
		<g id="body_5_">
			<g>
				
					<rect x="116.6" y="80.7" transform="matrix(0.7069 -0.7073 0.7073 0.7069 -19.9804 125.2024)" class="st21" width="49" height="12.1"/>
			</g>
		</g>
		<g id="eraser_3_">
			<g>
				<path class="st22" d="M168.7,58.6L155.1,45c-2.5-2.5-6.5-2.5-9,0l22.6,22.6C171.2,65.1,171.2,61.1,168.7,58.6z"/>
			</g>
		</g>
		<g id="steel_3_">
			<g>
				<path class="st23" d="M169.7,66.6L147.1,44c-0.4-0.4-1.1-0.4-1.5,0l-5.5,5.5c-0.4,0.4-0.4,1.1,0,1.5l22.6,22.6
					c0.4,0.4,1.1,0.4,1.5,0l5.5-5.5C170.1,67.7,170.1,67,169.7,66.6z"/>
			</g>
		</g>
		<g id="Rectangle_2_3_">
			<g>
				<polygon class="st24" points="105.4,85.7 101.6,112.1 128,108.3 				"/>
			</g>
		</g>
		<g id="color_3_">
			<g>
				<polygon class="st20" points="103,101.9 100.7,113.1 111.9,110.8 				"/>
			</g>
		</g>
	</g>
</g>
</svg>
