<?xml version="1.0" encoding="utf-8"?>
<!-- Generator: Adobe Illustrator 19.2.0, SVG Export Plug-In . SVG Version: 6.00 Build 0)  -->
<!DOCTYPE svg PUBLIC "-//W3C//DTD SVG 1.1//EN" "http://www.w3.org/Graphics/SVG/1.1/DTD/svg11.dtd">
<svg version="1.1" id="Layer_1" xmlns="http://www.w3.org/2000/svg" xmlns:xlink="http://www.w3.org/1999/xlink" x="0px" y="0px"
	 viewBox="0 0 200 200" style="enable-background:new 0 0 200 200;" xml:space="preserve">
<style type="text/css">
	.st0{fill-rule:evenodd;clip-rule:evenodd;fill:#516078;}
	.st1{fill:none;}
	.st2{fill:#D4D4D4;}
	.st3{fill:#EFEFEF;}
	.st4{fill:#626262;}
	.st5{fill:#7A7A7A;}
	.st6{fill:#E64545;}
	.st7{fill-rule:evenodd;clip-rule:evenodd;fill:#565454;}
	.st8{opacity:0.27;fill-rule:evenodd;clip-rule:evenodd;fill:#F2F2F2;}
	.st9{fill-rule:evenodd;clip-rule:evenodd;fill:#E64545;}
	.st10{fill-rule:evenodd;clip-rule:evenodd;fill:#FFD02C;}
	.st11{fill-rule:evenodd;clip-rule:evenodd;fill:#AEE42D;}
	.st12{opacity:0.38;fill:#565454;}
	.st13{fill:#48C4E5;}
	.st14{fill:#FFD02C;}
	.st15{fill-rule:evenodd;clip-rule:evenodd;fill:#929292;}
	.st16{fill-rule:evenodd;clip-rule:evenodd;fill:#FFFFFF;}
	.st17{fill-rule:evenodd;clip-rule:evenodd;fill:#D6D6D6;}
	.st18{fill-rule:evenodd;clip-rule:evenodd;fill:#BBBBBB;}
	.st19{fill-rule:evenodd;clip-rule:evenodd;fill:#456FD8;}
	.st20{fill-rule:evenodd;clip-rule:evenodd;fill:#567FE5;}
	.st21{fill-rule:evenodd;clip-rule:evenodd;fill:#3258B6;}
	.st22{fill-rule:evenodd;clip-rule:evenodd;fill:#FF72B1;}
	.st23{fill-rule:evenodd;clip-rule:evenodd;fill:#C6C6C6;}
	.st24{fill-rule:evenodd;clip-rule:evenodd;fill:#FFC833;}
	.st25{fill-rule:evenodd;clip-rule:evenodd;fill:#FFD464;stroke:#FFD464;stroke-miterlimit:10;}
	.st26{fill-rule:evenodd;clip-rule:evenodd;fill:#FFD464;}
	.st27{fill:#FFD464;}
	.st28{fill:#F36966;}
	.st29{fill:#1253A3;}
	.st30{fill:#F4F4F2;stroke:#000000;stroke-miterlimit:10;}
	.st31{fill:#303030;}
	.st32{fill:#F4F4F2;}
	.st33{fill-rule:evenodd;clip-rule:evenodd;fill:#44B2B6;}
	.st34{fill-rule:evenodd;clip-rule:evenodd;fill:#F1CDB0;}
	.st35{fill-rule:evenodd;clip-rule:evenodd;fill:#AB6125;}
	.st36{fill:#B0B0B0;}
	.st37{fill-rule:evenodd;clip-rule:evenodd;fill:#8F8F8F;}
</style>
<circle class="st26" cx="100" cy="100" r="100"/>
<g id="body__x2B__top_bar_xA0_Clipping_Path_1_">
	<path class="st1" d="M146.3,46.2H53.7c-5.1,0-9.3,4.1-9.3,9.3v92.7c0,5.1,4.1,9.3,9.3,9.3h92.7c5.1,0,9.3-4.1,9.3-9.3V55.5
		C155.6,50.4,151.5,46.2,146.3,46.2z"/>
</g>
<g>
	<rect x="44.4" y="44.4" class="st36" width="111.2" height="111.2"/>
	<rect x="44.4" y="44.4" class="st37" width="111.2" height="24.1"/>
	<g>
		<g>
			<rect x="44.4" y="44.4" class="st8" width="111.2" height="24.1"/>
			<g>
				<g id="x_3_">
					<g>
						<circle class="st9" cx="56.7" cy="56.7" r="6.2"/>
					</g>
				</g>
				<g id="_x2D__3_">
					<g>
						<circle class="st10" cx="75.3" cy="56.7" r="6.2"/>
					</g>
				</g>
				<g id="_x2B__3_">
					<g>
						<circle class="st11" cx="93.8" cy="56.7" r="6.2"/>
					</g>
				</g>
			</g>
			<rect x="44.4" y="68.5" class="st12" width="111.2" height="87.1"/>
		</g>
		<g>
			<g id="screen_2_">
				<g>
					<rect x="52.1" y="77.9" class="st7" width="95.8" height="71.1"/>
				</g>
			</g>
			<g>
				<g>
					<rect x="56.9" y="84.2" class="st6" width="27.5" height="2.8"/>
					<g>
						<rect x="61.7" y="91.1" class="st13" width="13.8" height="2.8"/>
						<rect x="112.4" y="91.1" class="st13" width="13.8" height="2.8"/>
						<rect x="78" y="91.1" class="st14" width="31.9" height="2.8"/>
					</g>
					<g>
						<rect x="61.7" y="97.4" class="st13" width="13.8" height="2.8"/>
						<rect x="104.6" y="97.4" class="st13" width="33.2" height="2.8"/>
						<rect x="77.7" y="97.4" class="st14" width="24.9" height="2.8"/>
					</g>
					<g>
						<rect x="61.7" y="109.9" class="st13" width="13.8" height="2.8"/>
						<rect x="119.3" y="109.9" class="st13" width="13.8" height="2.8"/>
						<rect x="77.7" y="109.9" class="st14" width="39.6" height="2.8"/>
					</g>
					<g>
						<rect x="61.7" y="103.6" class="st13" width="13.8" height="2.8"/>
						<rect x="112.4" y="103.6" class="st13" width="13.8" height="2.8"/>
						<rect x="77.7" y="103.6" class="st14" width="12.4" height="2.8"/>
						<rect x="92" y="103.6" class="st14" width="17.7" height="2.8"/>
					</g>
				</g>
				<g>
					<rect x="56.9" y="119.5" class="st6" width="27.5" height="2.8"/>
					<g>
						<rect x="61.7" y="125" class="st13" width="13.8" height="2.8"/>
						<rect x="116.5" y="125" class="st13" width="22.6" height="2.8"/>
						<rect x="77.7" y="125" class="st14" width="4.3" height="2.8"/>
						<rect x="85.9" y="125" class="st14" width="28.7" height="2.8"/>
					</g>
					<g>
						<rect x="61.7" y="137.6" class="st13" width="13.8" height="2.8"/>
						<rect x="117.7" y="137.6" class="st13" width="6.9" height="2.8"/>
						<rect x="127.7" y="137.6" class="st13" width="15.4" height="2.8"/>
						<rect x="77.7" y="137.6" class="st14" width="17.2" height="2.8"/>
						<rect x="96.9" y="137.6" class="st14" width="19" height="2.8"/>
					</g>
					<g>
						<rect x="61.7" y="131.3" class="st13" width="13.8" height="2.8"/>
						<rect x="112.4" y="131.3" class="st13" width="13.8" height="2.8"/>
						<rect x="127.7" y="131.3" class="st13" width="6.9" height="2.8"/>
						<rect x="77.7" y="131.3" class="st14" width="12.4" height="2.8"/>
						<rect x="92" y="131.3" class="st14" width="8.2" height="2.8"/>
						<rect x="101.8" y="131.3" class="st14" width="8.2" height="2.8"/>
					</g>
				</g>
			</g>
		</g>
	</g>
</g>
</svg>
